<?xml version="1.0" standalone="no"?>
<!DOCTYPE svg PUBLIC "-//W3C//DTD SVG 20010904//EN"
 "http://www.w3.org/TR/2001/REC-SVG-20010904/DTD/svg10.dtd">
<svg version="1.0" xmlns="http://www.w3.org/2000/svg"
 width="350.000000pt" height="350.000000pt" viewBox="0 0 350.000000 350.000000"
 preserveAspectRatio="xMidYMid meet">
<metadata>
Created by potrace 1.11, written by Peter Selinger 2001-2013
</metadata>
<g transform="translate(0.000000,350.000000) scale(0.100000,-0.100000)"
fill="#000000" stroke="none">
<path d="M0 1750 l0 -1750 1750 0 1750 0 0 1750 0 1750 -1750 0 -1750 0 0
-1750z m1520 246 c0 -586 -5 -649 -62 -766 -60 -123 -181 -216 -333 -255 -72
-19 -244 -22 -335 -5 -66 12 -177 51 -217 77 l-21 14 45 102 c67 153 54 141
121 107 32 -16 89 -34 126 -41 178 -31 312 37 356 179 19 59 20 93 20 453 l0
389 -310 0 -310 0 0 135 0 135 460 0 460 0 0 -524z m544 502 c6 -29 64 -755
73 -911 3 -64 7 -116 9 -114 2 1 12 43 23 92 10 50 48 180 84 290 l64 200 111
3 110 3 21 -63 c44 -139 110 -367 126 -440 9 -43 21 -75 26 -72 5 3 9 50 9
104 0 94 57 920 64 927 2 2 64 2 137 1 l134 -3 -77 -745 c-42 -410 -77 -755
-77 -767 -1 -23 -3 -23 -129 -23 l-128 0 -86 258 c-48 141 -97 299 -109 350
-12 51 -25 90 -29 85 -4 -4 -17 -48 -29 -98 -12 -49 -63 -204 -114 -342 l-92
-253 -132 0 c-100 0 -133 3 -133 13 0 13 -147 1452 -153 1500 l-4 27 149 0
c145 0 148 0 152 -22z"/>
</g>
</svg>
